<?xml version="1.0" standalone="no"?>
<!DOCTYPE svg PUBLIC "-//W3C//DTD SVG 20010904//EN"
 "http://www.w3.org/TR/2001/REC-SVG-20010904/DTD/svg10.dtd">
<svg version="1.0" xmlns="http://www.w3.org/2000/svg"
 width="148.000000pt" height="148.000000pt" viewBox="0 0 148.000000 148.000000"
 preserveAspectRatio="xMidYMid meet">
<metadata>
Created by potrace 1.14, written by Peter Selinger 2001-2017
</metadata>
<g transform="translate(0.000000,148.000000) scale(0.100000,-0.100000)"
fill="#000000" stroke="none">
<path d="M618 1470 c-155 -28 -287 -98 -400 -212 -75 -75 -94 -101 -137 -190
-64 -133 -76 -187 -76 -333 1 -139 20 -218 88 -350 31 -60 62 -101 129 -167
75 -75 101 -94 190 -137 133 -64 187 -76 333 -76 139 1 218 20 350 88 60 31
101 62 167 129 75 75 94 101 137 190 64 133 76 187 76 333 -1 139 -20 218 -88
350 -61 119 -183 237 -308 299 -52 26 -119 53 -149 62 -67 18 -247 26 -312 14z
m302 -510 l0 -30 -175 0 -175 0 0 30 0 30 175 0 175 0 0 -30z m-130 -172 c19
-40 56 -118 82 -173 26 -55 48 -103 48 -107 0 -5 -15 -8 -33 -8 -33 0 -35 2
-88 117 l-55 117 -54 -117 c-53 -116 -54 -117 -88 -117 -24 0 -33 4 -29 13 27
72 164 347 173 347 6 0 26 -33 44 -72z"/>
</g>
</svg>
