<svg width="43" height="43" viewBox="0 0 43 43" fill="none" xmlns="http://www.w3.org/2000/svg">
<circle cx="21.5" cy="21.5" r="21" stroke="#D7D7D7"/>
<path d="M27.4816 15.667C27.6456 15.6943 27.755 15.7764 27.8644 15.8857C27.9464 16.0224 28.0011 16.1592 28.0011 16.2959C28.0011 18.5928 27.4269 20.7256 26.2785 22.6943C25.13 24.6084 23.6261 26.1396 21.712 27.2607C19.7433 28.4092 17.6105 28.9834 15.3136 28.9834C15.1495 28.9834 15.0128 28.956 14.9035 28.8467C14.7667 28.7646 14.6847 28.6279 14.6847 28.4639L14.0285 25.6201C13.9738 25.4834 14.0011 25.3467 14.0831 25.1826C14.1378 25.0459 14.2472 24.9365 14.4113 24.8818L17.4738 23.5693C17.5831 23.5146 17.7199 23.5146 17.8566 23.542C17.9933 23.5967 18.13 23.6514 18.2394 23.7607L19.5792 25.4014C20.6456 24.9092 21.6027 24.2529 22.423 23.4053C23.2433 22.5849 23.9269 21.6279 24.4191 20.5615L22.7785 19.2217C22.6691 19.1123 22.587 19.0029 22.5597 18.8662C22.505 18.7295 22.5324 18.5928 22.587 18.456L23.8995 15.3935C23.9542 15.2568 24.0363 15.1474 24.2003 15.0654C24.337 15.0107 24.4738 14.9834 24.6378 15.0107L27.4816 15.667Z" fill="black"/>
</svg>
